# xmcd
#
# Track frame offsets: 
#        150
#        15446
#        32849
#        45398
#        55453
#        70879
#        88095
#        108592
#        128009
#        142351
#
# Disc length: 2142 seconds
#
# Revision: 0
# Processed by: cddbd v1.4PL0 Copyright (c) Steve Scherf et al.
# Submitted via: ExactAudioCopy v0.90b4
#
DISCID=8c085c0a
DTITLE=Jo Jo Smith - Million Dollar View
DYEAR=2001
DGENRE=Blues
TTITLE0=Neon Sign
TTITLE1=Can't Find My Way Home
TTITLE2=I Wish You Well
TTITLE3=I Believe
TTITLE4=The Kiss
TTITLE5=Tempt Me With Love
TTITLE6=That Kind of Love
TTITLE7=Love Is In Need of Love Today
TTITLE8=Million Dollar View
TTITLE9=This Is All There Is
EXTD=
EXTT0=
EXTT1=
EXTT2=
EXTT3=
EXTT4=
EXTT5=
EXTT6=
EXTT7=
EXTT8=
EXTT9=
PLAYORDER=
